<svg id="mailchimpIcon" xmlns="http://www.w3.org/2000/svg" viewBox="0 0 480 480" preserveAspectRatio="xMidYMid meet">
    <rect width="100%" height="100%" fill="#FFE01B"/>
    <g transform="translate(0.000000,480.000000) scale(0.100000,-0.100000)" fill="#000000" stroke="none">
    <path fill="#000000" d="M2120 4310 c-93 -26 -266 -110 -385 -187 -378 -247 -804 -721 -1010
    -1124 -134 -262 -174 -461 -123 -616 24 -71 56 -111 166 -204 l53 -44 -17 -45
    c-13 -34 -18 -76 -18 -170 0 -109 3 -133 25 -190 52 -137 165 -264 295 -332
    72 -38 173 -68 230 -68 27 0 33 -6 60 -62 49 -106 161 -264 249 -352 232 -235
    533 -382 885 -432 158 -22 431 -15 583 15 299 60 531 178 728 368 196 190 317
    408 364 656 36 187 4 308 -92 355 -32 15 -38 25 -63 102 -27 84 -27 85 -9 119
    45 85 45 202 -1 275 -51 83 -182 162 -331 202 l-66 17 -7 161 c-11 249 -49
    389 -136 504 l-40 53 62 74 c88 105 164 235 194 331 34 110 32 233 -6 307 -69
    135 -210 194 -445 184 -154 -7 -265 -32 -438 -102 l-119 -47 -112 111 c-139
    136 -172 154 -306 158 -72 2 -113 -2 -170 -17z m247 -131 c28 -10 176 -148
    193 -180 8 -14 -4 -25 -63 -60 -225 -132 -538 -369 -697 -529 -224 -222 -414
    -507 -550 -823 l-55 -128 -66 -23 c-81 -28 -167 -84 -214 -138 l-34 -40 -29
    20 c-51 37 -110 109 -121 148 -84 302 348 1008 869 1424 315 251 623 383 767
    329z m429 -555 c-20 -19 -34 -40 -31 -45 4 -5 25 -9 49 -9 24 0 78 -9 121 -20
    78 -20 192 -66 184 -75 -3 -2 -45 2 -94 10 -116 19 -349 19 -456 0 -210 -36
    -419 -117 -588 -227 -31 -20 -33 -20 -23 -2 14 27 163 169 247 236 76 61 216
    151 223 143 3 -2 -5 -27 -17 -54 -11 -27 -21 -54 -21 -59 0 -5 48 15 108 44
    111 55 229 92 296 93 l39 1 -37 -36z m561 -485 c61 -23 103 -84 122 -179 6
    -30 15 -137 20 -237 12 -228 14 -232 113 -262 162 -50 197 -63 241 -91 263
    -167 -105 -483 -653 -561 -57 -8 -153 -10 -293 -6 -132 4 -218 2 -235 -4 -41
    -16 -72 -49 -98 -104 -59 -124 -2 -265 136 -335 168 -86 461 -88 735 -5 101
    31 232 94 310 150 61 43 151 133 142 141 -3 3 -31 -12 -63 -32 -134 -86 -354
    -173 -526 -208 -228 -47 -489 -21 -595 60 -32 25 -69 81 -59 91 2 3 36 -2 75
    -11 168 -38 368 -39 481 -1 84 28 74 39 -30 33 -159 -9 -360 13 -487 53 -39
    12 -41 24 -11 56 l21 23 206 -7 c278 -8 444 13 649 83 95 33 250 110 317 158
    l49 36 17 -43 c9 -23 22 -68 30 -101 7 -32 17 -59 23 -61 6 -2 24 -6 39 -10
    61 -13 70 -108 25 -255 -92 -297 -361 -533 -717 -628 -83 -21 -118 -25 -256
    -26 -175 0 -237 10 -371 64 -101 40 -177 91 -249 165 -119 122 -175 254 -183
    431 -8 190 45 366 149 494 25 30 48 60 52 67 11 18 -14 60 -87 142 -108 124
    -156 233 -156 361 0 170 92 320 238 388 54 26 63 27 177 23 284 -11 335 -8
    398 21 32 15 83 47 115 71 81 63 131 78 189 56z m-1922 -850 c146 -69 235
    -260 221 -474 -13 -192 -90 -304 -232 -336 -111 -25 -259 28 -363 130 -230
    224 -158 602 132 697 63 21 180 13 242 -17z"/>
    <path fill="#000000" d="M3278 2783 c-8 -10 -17 -27 -20 -39 -8 -33 10 -142 32 -191 l19 -44
    48 3 48 3 3 59 c7 143 -74 273 -130 209z"/>
    <path fill="#000000" d="M2637 2536 c-73 -27 -140 -87 -120 -107 5 -5 37 1 72 11 90 29 186
    27 261 -5 71 -30 80 -31 80 -7 0 22 -53 74 -100 97 -46 24 -145 29 -193 11z"/>
    <path fill="#000000" d="M3346 2398 c-30 -43 -9 -118 34 -118 24 0 50 37 50 70 0 33 -26 70
    -50 70 -10 0 -26 -10 -34 -22z"/>
    <path fill="#000000" d="M2736 2380 c-34 -11 -76 -48 -76 -67 0 -17 10 -16 78 3 38 11 74 15
    114 10 64 -6 75 5 38 39 -23 21 -109 29 -154 15z"/>
    <path fill="#000000" d="M3138 2319 c-44 -25 1 -99 59 -99 61 0 70 65 13 95 -34 17 -48 18
    -72 4z"/>
    <path fill="#000000" d="M1205 2156 c-46 -20 -93 -80 -110 -140 -32 -110 14 -148 57 -48 20
    47 32 62 64 77 34 16 42 17 79 4 29 -10 45 -24 60 -51 19 -36 19 -39 2 -102
    -23 -86 -22 -126 6 -167 40 -59 104 -73 149 -32 31 28 22 43 -26 43 -26 0 -48
    6 -56 15 -16 19 -8 72 20 150 27 74 23 130 -14 185 -47 71 -152 101 -231 66z"/>
    </g>
    </svg>