<svg width="18" height="18" viewBox="0 0 18 18" fill="none" xmlns="http://www.w3.org/2000/svg">
<path fill-rule="evenodd" clip-rule="evenodd" d="M9.00049 18C13.9711 18 18.0005 13.9706 18.0005 9C18.0005 4.02944 13.9711 0 9.00049 0C4.02993 0 0.000488281 4.02944 0.000488281 9C0.000488281 13.9706 4.02993 18 9.00049 18ZM13.2192 9.75002C13.6335 9.75002 13.9692 9.41423 13.9692 9.00002C13.9692 8.5858 13.6335 8.25002 13.2192 8.25002H6.5924L8.70149 6.14093C8.99438 5.84803 8.99438 5.37316 8.70149 5.08027C8.4086 4.78737 7.93372 4.78737 7.64083 5.08027L4.25141 8.46969C3.95852 8.76258 3.95852 9.23746 4.25141 9.53035L7.64083 12.9198C7.93372 13.2127 8.4086 13.2127 8.70149 12.9198C8.99438 12.6269 8.99438 12.152 8.70149 11.8591L6.5924 9.75002H13.2192Z" fill="black"/>
</svg>
