<svg width="18" height="18" viewBox="0 0 18 18" fill="none" xmlns="http://www.w3.org/2000/svg">
<path d="M9.00049 4.94C7.96054 4.94 7.12549 5.77657 7.12549 6.7987C7.12549 7.21291 6.7897 7.5487 6.37549 7.5487C5.96127 7.5487 5.62549 7.21291 5.62549 6.7987C5.62549 4.93934 7.14094 3.44 9.00049 3.44C10.86 3.44 12.3755 4.93934 12.3755 6.7987L12.3758 6.94761C12.378 7.70396 12.3801 8.42309 11.8653 9.01996C11.6142 9.31121 11.2749 9.53774 10.8899 9.75752C10.5867 9.93061 10.2077 10.125 9.75049 10.3571V11.69C9.75049 12.1042 9.4147 12.44 9.00049 12.44C8.58628 12.44 8.25049 12.1042 8.25049 11.69V9.89652C8.25049 9.61408 8.40916 9.35559 8.66102 9.22775L8.8791 9.11713C9.43245 8.83654 9.83689 8.63147 10.1462 8.45487C10.4995 8.25315 10.6524 8.1296 10.7294 8.04036C10.8372 7.9153 10.8755 7.80732 10.8755 6.7987C10.8755 5.77657 10.0404 4.94 9.00049 4.94Z" fill="#9B9B9B"/>
<path d="M8.26025 13.8145C8.26025 13.4002 8.59604 13.0645 9.01025 13.0645C9.42447 13.0645 9.76025 13.4002 9.76025 13.8145C9.76025 14.2287 9.42447 14.5645 9.01025 14.5645C8.59604 14.5645 8.26025 14.2287 8.26025 13.8145Z" fill="#9B9B9B"/>
<path fill-rule="evenodd" clip-rule="evenodd" d="M18.0005 9.00012C18.0005 4.02956 13.9711 0.00012207 9.00049 0.00012207C4.02993 0.00012207 0.000488281 4.02956 0.000488281 9.00012C0.000488281 13.9707 4.02993 18.0001 9.00049 18.0001C13.9711 18.0001 18.0005 13.9707 18.0005 9.00012ZM9.00049 16.5001C13.1426 16.5001 16.5005 13.1423 16.5005 9.00012C16.5005 4.85799 13.1426 1.50012 9.00049 1.50012C4.85835 1.50012 1.50049 4.85799 1.50049 9.00012C1.50049 13.1423 4.85835 16.5001 9.00049 16.5001Z" fill="#9B9B9B"/>
</svg>
