<svg width="161" height="139" viewBox="0 0 161 139" fill="none" xmlns="http://www.w3.org/2000/svg">
<path d="M32 35.7393C32 16.0011 48.0043 0 67.747 0H124.942C144.684 0 160.688 16.0011 160.688 35.7393V85.774C160.688 105.513 144.684 121.513 124.942 121.513H58.8098H35.5747C33.6005 121.513 32 119.914 32 117.94V35.7393Z" fill="black"/>
<path d="M0 35.7393C0 16.0011 16.0042 0 35.7466 0H92.9413C112.683 0 128.688 16.0011 128.688 35.7393V85.774C128.688 105.513 112.683 121.513 92.9413 121.513H31.8256C28.5788 121.513 25.4287 122.618 22.8933 124.646L5.80766 138.312C4.61152 139.269 3.12114 139.119 1.94967 138.522C0.828877 137.951 0 136.987 0 135.521V35.7393Z" fill="url(#paint0_linear_301_566)"/>
<defs>
<linearGradient id="paint0_linear_301_566" x1="2.5" y1="65.5" x2="145" y2="65.5" gradientUnits="userSpaceOnUse">
<stop offset="0.272561" stop-color="#FFC926"/>
<stop offset="1" stop-color="#FFEFBE"/>
</linearGradient>
</defs>
</svg>
