<svg width="641" height="141" viewBox="0 0 641 141" fill="none" xmlns="http://www.w3.org/2000/svg">
<path d="M236.934 64.8681V93.3297H223.993V63.8453C223.993 61.2363 223.548 59.1313 222.659 57.5304C221.503 55.2772 219.309 54.1506 216.077 54.1506C212.727 54.1506 210.177 55.2772 208.428 57.5304C206.709 59.7539 205.849 62.941 205.849 67.0917V93.3297H193.219V28.0015H205.849V51.171C207.687 48.3545 209.807 46.3977 212.208 45.3008C214.639 44.1742 217.189 43.6109 219.857 43.6109C222.852 43.6109 225.564 44.1297 227.996 45.1674C230.456 46.205 232.472 47.7912 234.044 49.9258C235.378 51.7343 236.193 53.6021 236.49 55.5292C236.786 57.4266 236.934 60.5396 236.934 64.8681Z" fill="black"/>
<path d="M290.3 79.0989C289.974 81.9747 288.476 84.895 285.808 87.8598C281.657 92.5737 275.847 94.9307 268.375 94.9307C262.209 94.9307 256.768 92.9443 252.054 88.9715C247.34 84.9988 244.984 78.5356 244.984 69.5821C244.984 61.1918 247.103 54.7583 251.343 50.2816C255.612 45.8048 261.141 43.5664 267.931 43.5664C271.963 43.5664 275.595 44.3224 278.826 45.8344C282.058 47.3465 284.726 49.7331 286.831 52.9943C288.728 55.8701 289.959 59.2055 290.522 63.0003C290.848 65.2239 290.982 68.4258 290.922 72.6061H257.747C257.925 77.4683 259.452 80.8778 262.327 82.8345C264.077 84.05 266.181 84.6578 268.642 84.6578C271.251 84.6578 273.371 83.9166 275.002 82.4343C275.891 81.6338 276.677 80.522 277.359 79.0989H290.3ZM277.759 64.2455C277.551 60.8954 276.528 58.3605 274.69 56.6409C272.882 54.8917 270.629 54.0171 267.931 54.0171C264.996 54.0171 262.713 54.9362 261.082 56.7744C259.481 58.6125 258.473 61.1029 258.058 64.2455H277.759Z" fill="black"/>
<path d="M319.206 80.6109L329.212 44.8561H342.687L326.055 92.5292C322.853 101.72 320.318 107.412 318.45 109.606C316.582 111.83 312.847 112.942 307.243 112.942C306.117 112.942 305.212 112.927 304.531 112.897C303.849 112.897 302.826 112.853 301.462 112.764V102.624L303.063 102.713C304.308 102.772 305.494 102.728 306.621 102.58C307.747 102.431 308.696 102.091 309.467 101.557C310.208 101.053 310.89 100 311.513 98.3994C312.165 96.7985 312.432 95.8201 312.313 95.4643L294.524 44.8561H308.622L319.206 80.6109Z" fill="black"/>
<path d="M377.419 58.1974C376.352 55.8553 374.261 54.6842 371.148 54.6842C367.531 54.6842 365.1 55.8553 363.855 58.1974C363.173 59.5316 362.832 61.518 362.832 64.1566V93.3297H349.98V44.945H362.299V52.0159C363.87 49.4959 365.352 47.7022 366.746 46.6349C369.207 44.7375 372.394 43.7888 376.307 43.7888C380.013 43.7888 383.007 44.6041 385.29 46.2347C387.128 47.7467 388.522 49.6886 389.471 52.0604C391.131 49.2142 393.191 47.1241 395.652 45.79C398.261 44.4558 401.167 43.7888 404.368 43.7888C406.503 43.7888 408.608 44.2038 410.683 45.034C412.759 45.8641 414.641 47.3168 416.331 49.3921C417.695 51.082 418.614 53.1574 419.088 55.6181C419.385 57.2487 419.533 59.6353 419.533 62.778L419.444 93.3297H406.459V62.4667C406.459 60.6285 406.162 59.1165 405.569 57.9306C404.443 55.6774 402.367 54.5508 399.343 54.5508C395.845 54.5508 393.429 56.0035 392.094 58.909C391.413 60.4506 391.072 62.3036 391.072 64.4679V93.3297H378.308V64.4679C378.308 61.5921 378.012 59.5019 377.419 58.1974Z" fill="black"/>
<path d="M433.052 50.1037C436.403 45.8344 442.154 43.6998 450.307 43.6998C455.614 43.6998 460.328 44.7523 464.449 46.8573C468.57 48.9622 470.631 52.935 470.631 58.7756V81.0112C470.631 82.5529 470.66 84.4206 470.72 86.6146C470.809 88.2748 471.061 89.4014 471.476 89.9944C471.891 90.5873 472.513 91.0765 473.343 91.4619V93.3297H459.557C459.172 92.3513 458.905 91.4323 458.757 90.5725C458.609 89.7127 458.49 88.7344 458.401 87.6374C456.652 89.5348 454.636 91.1506 452.353 92.4848C449.625 94.0561 446.542 94.8417 443.103 94.8417C438.715 94.8417 435.083 93.5965 432.207 91.1062C429.361 88.5861 427.938 85.0284 427.938 80.4331C427.938 74.4739 430.236 70.1602 434.831 67.4919C437.351 66.0392 441.057 65.0015 445.949 64.3789L450.263 63.8453C452.605 63.5488 454.28 63.1782 455.288 62.7335C457.097 61.9627 458.001 60.7619 458.001 59.1313C458.001 57.145 457.304 55.7812 455.911 55.04C454.547 54.2691 452.531 53.8837 449.863 53.8837C446.868 53.8837 444.748 54.6249 443.503 56.1073C442.614 57.2042 442.021 58.6866 441.724 60.5544H429.495C429.762 56.3148 430.947 52.8312 433.052 50.1037ZM442.48 84.1686C443.666 85.147 445.119 85.6362 446.839 85.6362C449.566 85.6362 452.071 84.8357 454.354 83.2347C456.667 81.6338 457.867 78.7135 457.956 74.4739V69.76C457.156 70.264 456.341 70.679 455.51 71.0052C454.71 71.3016 453.598 71.5833 452.175 71.8501L449.329 72.3838C446.661 72.8581 444.748 73.4362 443.592 74.1181C441.635 75.2744 440.657 77.0681 440.657 79.4992C440.657 81.6634 441.265 83.2199 442.48 84.1686Z" fill="black"/>
<path d="M506.297 56.552C501.197 56.552 497.773 58.2123 496.024 61.5328C495.045 63.4006 494.556 66.2764 494.556 70.1602V93.3297H481.793V44.8561H493.889V53.3056C495.846 50.074 497.551 47.8653 499.003 46.6794C501.375 44.693 504.458 43.6998 508.253 43.6998C508.49 43.6998 508.683 43.7146 508.831 43.7443C509.009 43.7443 509.38 43.7591 509.943 43.7888V56.7744C509.143 56.6854 508.431 56.6261 507.809 56.5965C507.186 56.5668 506.682 56.552 506.297 56.552Z" fill="black"/>
<path d="M561.886 93.3297H546.588L534.981 72.6061L529.733 78.0761V93.3297H517.281V28.0015H529.733V63.3116L545.52 45.0784H561.219L544.275 63.6229L561.886 93.3297Z" fill="black"/>
<path d="M609.603 79.0989C609.277 81.9747 607.78 84.895 605.112 87.8598C600.961 92.5737 595.15 94.9307 587.679 94.9307C581.512 94.9307 576.072 92.9443 571.358 88.9715C566.644 84.9988 564.287 78.5356 564.287 69.5821C564.287 61.1918 566.407 54.7583 570.646 50.2816C574.916 45.8048 580.445 43.5664 587.234 43.5664C591.266 43.5664 594.898 44.3224 598.13 45.8344C601.361 47.3465 604.03 49.7331 606.135 52.9943C608.032 55.8701 609.262 59.2055 609.826 63.0003C610.152 65.2239 610.285 68.4258 610.226 72.6061H577.05C577.228 77.4683 578.755 80.8778 581.631 82.8345C583.38 84.05 585.485 84.6578 587.946 84.6578C590.555 84.6578 592.675 83.9166 594.305 82.4343C595.195 81.6338 595.98 80.522 596.662 79.0989H609.603ZM597.062 64.2455C596.855 60.8954 595.832 58.3605 593.994 56.6409C592.185 54.8917 589.932 54.0171 587.234 54.0171C584.299 54.0171 582.016 54.9362 580.386 56.7744C578.785 58.6125 577.777 61.1029 577.362 64.2455H597.062Z" fill="black"/>
<path d="M641 84.3021V93.7744L634.996 93.9968C629.008 94.2043 624.916 93.1667 622.722 90.8838C621.299 89.4311 620.588 87.1927 620.588 84.1686V54.3284H613.828V45.3008H620.588V31.7815H633.129V45.3008H641V54.3284H633.129V79.9439C633.129 81.9303 633.381 83.1755 633.885 83.6795C634.389 84.1538 635.93 84.391 638.51 84.391C638.895 84.391 639.295 84.391 639.71 84.391C640.155 84.3613 640.585 84.3317 641 84.3021Z" fill="black"/>
<path d="M32.3547 36.1354C32.3547 16.1784 48.5365 0 68.4979 0H126.327C146.288 0 162.469 16.1784 162.469 36.1354V86.7247C162.469 106.682 146.288 122.86 126.327 122.86H59.4617H35.969C33.9729 122.86 32.3547 121.243 32.3547 119.247V36.1354Z" fill="black"/>
<path d="M0 36.1354C0 16.1784 16.1816 0 36.1428 0H93.9715C113.932 0 130.115 16.1784 130.115 36.1354V86.7247C130.115 106.682 113.932 122.86 93.9715 122.86H32.1784C28.8956 122.86 25.7106 123.977 23.1471 126.028L5.87204 139.845C4.66263 140.813 3.15573 140.661 1.97128 140.057C0.838064 139.48 0 138.505 0 137.023V36.1354Z" fill="url(#paint0_linear_301_586)"/>
<defs>
<linearGradient id="paint0_linear_301_586" x1="2.52771" y1="66.226" x2="146.607" y2="66.226" gradientUnits="userSpaceOnUse">
<stop offset="0.272561" stop-color="#FFC926"/>
<stop offset="1" stop-color="#FFEFBE"/>
</linearGradient>
</defs>
</svg>
