<svg width="642" height="141" viewBox="0 0 642 141" fill="none" xmlns="http://www.w3.org/2000/svg">
<path d="M32.4456 36.2372C32.4456 16.224 48.6728 0 68.6905 0H126.682C146.699 0 162.926 16.224 162.926 36.2372V86.9689C162.926 106.983 146.699 123.206 126.682 123.206H59.6289H36.07C34.0683 123.206 32.4456 121.584 32.4456 119.583V36.2372Z" fill="white"/>
<path d="M0 36.2372C0 16.224 16.2272 0 36.2446 0H94.2361C114.253 0 130.481 16.224 130.481 36.2372V86.9689C130.481 106.983 114.253 123.206 94.2361 123.206H32.269C28.977 123.206 25.783 124.326 23.2123 126.383L5.88857 140.239C4.67576 141.209 3.16462 141.057 1.97683 140.452C0.840424 139.873 0 138.895 0 137.409V36.2372Z" fill="url(#paint0_linear_301_578)"/>
<path d="M235.838 65.0509V93.5927H222.861V64.0252C222.861 61.4089 222.415 59.298 221.523 57.6925C220.363 55.4329 218.163 54.3032 214.923 54.3032C211.563 54.3032 209.006 55.4329 207.252 57.6925C205.528 59.9223 204.665 63.1184 204.665 67.2807V93.5927H192V28.0804H204.665V51.3152C206.509 48.4908 208.634 46.5285 211.043 45.4285C213.481 44.2987 216.037 43.7338 218.713 43.7338C221.716 43.7338 224.436 44.2541 226.874 45.2947C229.342 46.3353 231.364 47.9259 232.94 50.0665C234.277 51.8801 235.095 53.7531 235.392 55.6857C235.69 57.5884 235.838 60.7102 235.838 65.0509Z" fill="white"/>
<path d="M289.354 79.3218C289.027 82.2057 287.526 85.1342 284.85 88.1073C280.688 92.8345 274.86 95.1981 267.368 95.1981C261.184 95.1981 255.728 93.2061 251.001 89.2222C246.274 85.2382 243.91 78.7569 243.91 69.7781C243.91 61.3643 246.036 54.9127 250.288 50.4233C254.569 45.9339 260.114 43.6892 266.922 43.6892C270.965 43.6892 274.608 44.4473 277.848 45.9636C281.089 47.4799 283.765 49.8733 285.876 53.1437C287.778 56.0276 289.012 59.3723 289.577 63.1779C289.904 65.4077 290.038 68.6186 289.978 72.8107H256.709C256.888 77.6866 258.419 81.1056 261.303 83.0679C263.057 84.2868 265.168 84.8963 267.636 84.8963C270.252 84.8963 272.378 84.1531 274.013 82.6665C274.905 81.8638 275.693 80.7489 276.377 79.3218H289.354ZM276.778 64.4266C276.57 61.067 275.544 58.525 273.701 56.8006C271.887 55.0464 269.628 54.1694 266.922 54.1694C263.979 54.1694 261.689 55.091 260.054 56.9344C258.449 58.7777 257.438 61.2751 257.022 64.4266H276.778Z" fill="white"/>
<path d="M318.342 80.8381L328.376 44.9825H341.889L325.21 92.7899C321.999 102.007 319.457 107.715 317.584 109.915C315.711 112.145 311.964 113.26 306.345 113.26C305.216 113.26 304.309 113.245 303.625 113.215C302.941 113.215 301.915 113.17 300.548 113.081V102.913L302.153 103.003C303.402 103.062 304.591 103.017 305.721 102.869C306.851 102.72 307.802 102.378 308.575 101.843C309.318 101.338 310.002 100.282 310.627 98.6767C311.281 97.0712 311.548 96.09 311.429 95.7333L293.591 44.9825H307.728L318.342 80.8381Z" fill="white"/>
<path d="M376.719 58.3614C375.648 56.0127 373.552 54.8383 370.43 54.8383C366.803 54.8383 364.365 56.0127 363.117 58.3614C362.433 59.6993 362.091 61.6913 362.091 64.3374V93.5927H349.203V45.0717H361.556V52.1625C363.131 49.6354 364.618 47.8367 366.015 46.7664C368.483 44.8636 371.679 43.9122 375.604 43.9122C379.32 43.9122 382.323 44.7298 384.612 46.365C386.455 47.8813 387.853 49.8287 388.804 52.2071C390.469 49.353 392.535 47.2569 395.003 45.919C397.619 44.5811 400.533 43.9122 403.744 43.9122C405.885 43.9122 407.996 44.3284 410.077 45.1609C412.158 45.9934 414.046 47.4502 415.74 49.5313C417.108 51.226 418.03 53.3072 418.505 55.7748C418.803 57.4101 418.951 59.8034 418.951 62.9549L418.862 93.5927H405.84V62.6427C405.84 60.7994 405.543 59.2831 404.948 58.0939C403.818 55.8343 401.737 54.7045 398.705 54.7045C395.196 54.7045 392.773 56.1613 391.435 59.075C390.752 60.621 390.41 62.4792 390.41 64.6495V93.5927H377.61V64.6495C377.61 61.7656 377.313 59.6696 376.719 58.3614Z" fill="white"/>
<path d="M432.509 50.2449C435.868 45.9636 441.636 43.823 449.812 43.823C455.134 43.823 459.861 44.8784 463.994 46.9893C468.126 49.1002 470.193 53.0842 470.193 58.9412V81.2394C470.193 82.7854 470.223 84.6585 470.282 86.8586C470.371 88.5235 470.624 89.6533 471.04 90.2479C471.456 90.8425 472.081 91.3331 472.913 91.7196V93.5927H459.088C458.702 92.6115 458.434 91.6899 458.285 90.8277C458.137 89.9655 458.018 88.9843 457.929 87.8843C456.175 89.7871 454.153 91.4074 451.864 92.7453C449.128 94.3211 446.036 95.1089 442.588 95.1089C438.187 95.1089 434.545 93.8602 431.661 91.3628C428.807 88.8357 427.38 85.268 427.38 80.6597C427.38 74.6837 429.684 70.3579 434.293 67.6821C436.82 66.2253 440.536 65.1847 445.442 64.5604L449.768 64.0252C452.116 63.7279 453.796 63.3562 454.807 62.9103C456.621 62.1373 457.527 60.9332 457.527 59.298C457.527 57.306 456.829 55.9384 455.431 55.1951C454.064 54.4221 452.042 54.0356 449.366 54.0356C446.363 54.0356 444.238 54.7789 442.989 56.2654C442.097 57.3655 441.502 58.852 441.205 60.7251H428.941C429.209 56.4735 430.398 52.9801 432.509 50.2449ZM441.963 84.4058C443.152 85.3869 444.609 85.8775 446.334 85.8775C449.069 85.8775 451.581 85.0747 453.87 83.4693C456.189 81.8638 457.394 78.9353 457.483 74.6838V69.9565C456.68 70.4619 455.862 70.8782 455.03 71.2052C454.227 71.5025 453.112 71.785 451.685 72.0526L448.831 72.5877C446.155 73.0634 444.238 73.6432 443.078 74.327C441.116 75.4865 440.135 77.2852 440.135 79.7232C440.135 81.8935 440.744 83.4544 441.963 84.4058Z" fill="white"/>
<path d="M505.959 56.7114C500.845 56.7114 497.411 58.3763 495.657 61.7062C494.676 63.5792 494.186 66.4631 494.186 70.3579V93.5927H481.387V44.9825H493.517V53.4558C495.479 50.2152 497.189 48.0002 498.645 46.811C501.024 44.819 504.116 43.823 507.921 43.823C508.159 43.823 508.352 43.8379 508.501 43.8676C508.68 43.8676 509.051 43.8825 509.616 43.9122V56.9344C508.813 56.8452 508.1 56.7857 507.475 56.756C506.851 56.7262 506.346 56.7114 505.959 56.7114Z" fill="white"/>
<path d="M561.705 93.5927H546.364L534.724 72.8107L529.461 78.2961V93.5927H516.974V28.0804H529.461V63.49L545.293 45.2055H561.036L544.045 63.8022L561.705 93.5927Z" fill="white"/>
<path d="M609.557 79.3218C609.23 82.2057 607.728 85.1342 605.052 88.1073C600.89 92.8345 595.063 95.1981 587.571 95.1981C581.387 95.1981 575.931 93.2061 571.204 89.2222C566.477 85.2382 564.113 78.7569 564.113 69.7781C564.113 61.3643 566.239 54.9127 570.49 50.4233C574.771 45.9339 580.316 43.6892 587.125 43.6892C591.168 43.6892 594.81 44.4473 598.051 45.9636C601.292 47.4799 603.967 49.8733 606.078 53.1437C607.981 56.0276 609.215 59.3723 609.78 63.1779C610.107 65.4077 610.241 68.6186 610.181 72.8107H576.912C577.09 77.6866 578.622 81.1056 581.506 83.0679C583.26 84.2868 585.371 84.8963 587.838 84.8963C590.455 84.8963 592.58 84.1531 594.216 82.6665C595.107 81.8638 595.895 80.7489 596.579 79.3218H609.557ZM596.981 64.4266C596.772 61.067 595.747 58.525 593.903 56.8006C592.09 55.0464 589.83 54.1694 587.125 54.1694C584.181 54.1694 581.892 55.091 580.257 56.9344C578.651 58.7777 577.641 61.2751 577.224 64.4266H596.981Z" fill="white"/>
<path d="M641.042 84.5396V94.0386L635.021 94.2616C629.016 94.4697 624.913 93.4291 622.713 91.1398C621.286 89.683 620.572 87.4383 620.572 84.4058V54.4816H613.793V45.4285H620.572V31.8711H633.148V45.4285H641.042V54.4816H633.148V80.1691C633.148 82.1611 633.401 83.4098 633.906 83.9152C634.412 84.3909 635.958 84.6288 638.544 84.6288C638.931 84.6288 639.332 84.6288 639.749 84.6288C640.195 84.599 640.626 84.5693 641.042 84.5396Z" fill="white"/>
<defs>
<linearGradient id="paint0_linear_301_578" x1="-74.4855" y1="72.5756" x2="80.2151" y2="72.5756" gradientUnits="userSpaceOnUse">
<stop stop-color="#FFEFBE"/>
<stop offset="1" stop-color="#FFC926"/>
</linearGradient>
</defs>
</svg>
