<svg width="163" height="141" viewBox="0 0 163 141" fill="none" xmlns="http://www.w3.org/2000/svg">
<path d="M32.4456 36.2372C32.4456 16.224 48.6728 0 68.6905 0H126.682C146.699 0 162.926 16.224 162.926 36.2372V86.9689C162.926 106.983 146.699 123.206 126.682 123.206H59.6289H36.07C34.0683 123.206 32.4456 121.584 32.4456 119.583V36.2372Z" fill="white"/>
<path d="M0 36.2372C0 16.224 16.2272 0 36.2446 0H94.2361C114.253 0 130.481 16.224 130.481 36.2372V86.9689C130.481 106.983 114.253 123.206 94.2361 123.206H32.269C28.977 123.206 25.783 124.326 23.2123 126.383L5.88857 140.239C4.67576 141.209 3.16462 141.057 1.97683 140.452C0.840424 139.873 0 138.895 0 137.409V36.2372Z" fill="url(#paint0_linear_301_579)"/>
<defs>
<linearGradient id="paint0_linear_301_579" x1="-74.4855" y1="72.5756" x2="80.2151" y2="72.5756" gradientUnits="userSpaceOnUse">
<stop stop-color="#FFEFBE"/>
<stop offset="1" stop-color="#FFC926"/>
</linearGradient>
</defs>
</svg>
