<?xml version="1.0" encoding="UTF-8"?>
<svg width="18px" height="20px" viewBox="0 0 18 20" version="1.1" xmlns="http://www.w3.org/2000/svg" xmlns:xlink="http://www.w3.org/1999/xlink">
    <!-- Generator: Sketch 55.1 (78136) - https://sketchapp.com -->
    <title>Icon-Attachment</title>
    <desc>Created with Sketch.</desc>
    <g id="WebApp" stroke="none" stroke-width="1" fill="none" fill-rule="evenodd">
        <g id="Screen-08-Chat-Widget" transform="translate(-829.000000, -688.000000)">
            <g id="Chat-Widget" transform="translate(806.000000, 228.000000)">
                <g id="Type-message" transform="translate(0.000000, 402.000000)">
                    <g id="Bottom" transform="translate(20.000000, 53.000000)">
                        <g id="Icon-Attachment" transform="translate(0.000000, 3.000000)">
                            <rect id="Rectangle" fill="#D8D8D8" opacity="0" x="0" y="0" width="24" height="24"></rect>
                            <path d="M7.69743311,21.5 C6.43195654,21.5 5.24752129,20.9613142 4.39225625,20.1031639 C2.73504788,18.440365 2.27286211,15.5373718 4.59649577,13.2060926 C5.95783595,11.8401599 11.4108965,6.36908982 14.1329994,3.6374177 C15.0991428,2.6676287 16.3293924,2.29331062 17.5068977,2.61007102 C18.6634209,2.92084387 19.6112771,3.87151136 19.9210051,5.03174288 C20.236508,6.21399312 19.8634484,7.44781349 18.897305,8.41740934 L9.77736532,17.568115 C9.2566604,18.0905765 8.66858147,18.3998042 8.07723008,18.4625768 C7.49184611,18.5243837 6.93264175,18.3352932 6.54167994,17.9428194 C5.83232777,17.2310742 5.73107425,15.8916027 6.91050457,14.7085798 L13.3162338,8.2808547 C13.5795699,8.01682332 14.0057587,8.01682332 14.2690949,8.2808547 C14.5322386,8.54488608 14.5322386,8.97309206 14.2690949,9.23693029 L7.8631732,15.6644623 C7.30935876,16.220145 7.258732,16.7503324 7.49434857,16.9869369 C7.59771956,17.0906567 7.75460478,17.1375913 7.93535965,17.1180835 C8.2129406,17.0887252 8.52863601,16.9089057 8.8245042,16.6120394 L17.9444439,7.46133375 C18.5700598,6.83360735 18.8101038,6.09520797 18.619339,5.38191764 C18.4318468,4.67963666 17.8583976,4.10425299 17.1582853,3.91593507 C16.4477782,3.72471995 15.7116689,3.96538059 15.085668,4.59330014 C12.3635652,7.32477912 6.91050457,12.7964287 5.5491644,14.1621682 C3.77222278,15.9449111 4.19783408,17.9959347 5.34492487,19.1470883 C6.49201567,20.2980488 8.5361434,20.7252891 10.31347,18.9423529 L19.8499736,9.37367807 C20.1131173,9.10964669 20.5394986,9.10964669 20.8026422,9.37367807 C21.0657859,9.6375163 21.0657859,10.0657223 20.8026422,10.3295605 L11.2661386,19.8984285 C10.141955,21.0264046 8.88398583,21.5 7.69743311,21.5" id="Attachment" fill="#000000" opacity="0.5"></path>
                        </g>
                    </g>
                </g>
            </g>
        </g>
    </g>
</svg>