<svg width="18" height="18" viewBox="0 0 18 18" fill="none" xmlns="http://www.w3.org/2000/svg">
<path d="M11.5005 8.99931C11.5005 10.38 10.3812 11.4993 9.00051 11.4993C7.6198 11.4993 6.50051 10.38 6.50051 8.99931C6.50051 7.61859 7.6198 6.49931 9.00051 6.49931C10.3812 6.49931 11.5005 7.61859 11.5005 8.99931Z" fill="black"/>
<path fill-rule="evenodd" clip-rule="evenodd" d="M3.69719 2.63605C3.99008 2.92894 3.99008 3.40382 3.69719 3.69671C0.768255 6.62564 0.768255 11.3744 3.69719 14.3033C3.99008 14.5962 3.99008 15.0711 3.69719 15.364C3.40429 15.6569 2.92942 15.6569 2.63653 15.364C-0.878191 11.8493 -0.878191 6.15077 2.63653 2.63605C2.92942 2.34316 3.40429 2.34316 3.69719 2.63605ZM14.3038 2.63605C14.5967 2.34316 15.0716 2.34316 15.3644 2.63605C18.8792 6.15077 18.8792 11.8493 15.3644 15.364C15.0716 15.6569 14.5967 15.6569 14.3038 15.364C14.0109 15.0711 14.0109 14.5962 14.3038 14.3033C17.2327 11.3744 17.2327 6.62564 14.3038 3.69671C14.0109 3.40382 14.0109 2.92894 14.3038 2.63605ZM5.99528 4.93415C6.28818 5.22704 6.28818 5.70192 5.99528 5.99481C4.33556 7.65454 4.33556 10.3455 5.99528 12.0052C6.28818 12.2981 6.28818 12.773 5.99528 13.0659C5.70239 13.3588 5.22752 13.3588 4.93462 13.0659C2.68911 10.8204 2.68911 7.17966 4.93462 4.93415C5.22752 4.64126 5.70239 4.64126 5.99528 4.93415ZM12.0057 4.93415C12.2986 4.64126 12.7735 4.64126 13.0664 4.93415C15.3119 7.17966 15.3119 10.8204 13.0664 13.0659C12.7735 13.3588 12.2986 13.3588 12.0057 13.0659C11.7128 12.773 11.7128 12.2981 12.0057 12.0052C13.6654 10.3455 13.6654 7.65454 12.0057 5.99481C11.7128 5.70192 11.7128 5.22704 12.0057 4.93415Z" fill="black"/>
</svg>
