<?xml version="1.0" encoding="UTF-8"?>
<svg width="20px" height="25px" viewBox="0 0 20 25" version="1.1" xmlns="http://www.w3.org/2000/svg" xmlns:xlink="http://www.w3.org/1999/xlink">
    <!-- Generator: Sketch 55.1 (78136) - https://sketchapp.com -->
    <title>Icon-Template</title>
    <desc>Created with Sketch.</desc>
    <g id="WebApp" stroke="none" stroke-width="1" fill="none" fill-rule="evenodd">
        <g id="Screen-08-Chat-Widget" transform="translate(-860.000000, -686.000000)">
            <g id="Chat-Widget" transform="translate(806.000000, 228.000000)">
                <g id="Type-message" transform="translate(0.000000, 402.000000)">
                    <g id="Bottom" transform="translate(20.000000, 53.000000)">
                        <g id="Icon-Template" transform="translate(32.000000, 3.000000)">
                            <rect id="Rectangle" fill="#D8D8D8" opacity="0" x="0" y="0" width="24" height="24"></rect>
                            <g id="Template" opacity="0.5" transform="translate(2.250000, 0.000000)">
                                <path d="M18.962,5.1458 L18.962,18.9588 C18.962,21.5138 16.871,23.6048 14.316,23.6048 L5.146,23.6048 C2.591,23.6048 0.5,21.5138 0.5,18.9588 L0.5,5.1458 C0.5,2.5908 2.591,0.4998 5.146,0.4998 L14.316,0.4998 L18.962,5.1458 L18.962,5.1458 Z" id="Stroke-1" stroke="#000000"></path>
                                <path d="M6.8862,7.0533 L5.4552,7.0533 C4.3432,7.0533 3.4392,7.9573 3.4392,9.0693 L3.4392,10.2883 C3.4392,11.4003 4.3432,12.3043 5.4552,12.3043 L6.8862,12.3043 C7.9982,12.3043 8.9022,11.4003 8.9022,10.2883 L8.9022,9.0693 C8.9022,7.9573 7.9982,7.0533 6.8862,7.0533 M6.8862,8.0533 C7.4472,8.0533 7.9022,8.5083 7.9022,9.0693 L7.9022,10.2883 C7.9022,10.8493 7.4472,11.3043 6.8862,11.3043 L5.4552,11.3043 C4.8942,11.3043 4.4392,10.8493 4.4392,10.2883 L4.4392,9.0693 C4.4392,8.5083 4.8942,8.0533 5.4552,8.0533 L6.8862,8.0533" id="Fill-3" fill="#000000"></path>
                                <path d="M13.6814,13.7103 C13.1424,13.7103 12.6364,13.9203 12.2554,14.3013 L11.5764,14.9803 C10.7904,15.7663 10.7904,17.0453 11.5764,17.8313 L12.2484,18.5023 C12.6294,18.8833 13.1354,19.0933 13.6734,19.0933 C14.2124,19.0933 14.7184,18.8833 15.0994,18.5023 L15.7784,17.8233 C16.5644,17.0373 16.5644,15.7583 15.7784,14.9723 L15.1074,14.3013 C14.7264,13.9203 14.2204,13.7103 13.6814,13.7103 M13.6814,14.7103 C13.9414,14.7103 14.2014,14.8093 14.4004,15.0083 L15.0714,15.6793 C15.4684,16.0763 15.4684,16.7203 15.0714,17.1163 L14.3924,17.7953 C14.1934,17.9943 13.9334,18.0933 13.6734,18.0933 C13.4134,18.0933 13.1534,17.9943 12.9554,17.7953 L12.2834,17.1243 C11.8874,16.7273 11.8874,16.0843 12.2834,15.6873 L12.9624,15.0083 C13.1614,14.8093 13.4214,14.7103 13.6814,14.7103" id="Fill-5" fill="#000000"></path>
                                <path d="M13.4846,6.6224 C13.1036,6.6224 12.7566,6.8384 12.5876,7.1794 L12.1926,7.9794 L11.3106,8.1074 C10.9336,8.1624 10.6206,8.4264 10.5036,8.7884 C10.3856,9.1504 10.4836,9.5474 10.7566,9.8134 L11.3946,10.4354 L11.2446,11.3144 C11.1796,11.6904 11.3336,12.0694 11.6416,12.2934 C11.8166,12.4194 12.0226,12.4844 12.2296,12.4844 C12.3886,12.4844 12.5486,12.4464 12.6946,12.3694 L13.4846,11.9544 L14.2736,12.3694 C14.4206,12.4454 14.5796,12.4844 14.7396,12.4844 C14.9466,12.4844 15.1526,12.4194 15.3266,12.2934 C15.6346,12.0694 15.7896,11.6904 15.7246,11.3154 L15.5746,10.4354 L16.2126,9.8134 C16.4856,9.5474 16.5836,9.1504 16.4656,8.7884 C16.3486,8.4264 16.0356,8.1624 15.6586,8.1074 L14.7766,7.9794 L14.3816,7.1794 C14.2126,6.8384 13.8656,6.6224 13.4846,6.6224 M13.4846,7.6224 L14.1116,8.8934 L15.5146,9.0974 L14.4996,10.0864 L14.7396,11.4844 L13.4846,10.8244 L12.2296,11.4844 L12.4696,10.0864 L11.4546,9.0974 L12.8576,8.8934 L13.4846,7.6224" id="Fill-7" fill="#000000"></path>
                                <path d="M6.3796,13.6107 L5.5696,13.6107 C4.9186,13.6107 4.3896,14.1397 4.3896,14.7907 L4.3896,14.9157 L4.2646,14.9157 C3.6146,14.9157 3.0846,15.4447 3.0846,16.0957 L3.0846,16.9057 C3.0846,17.5557 3.6146,18.0857 4.2646,18.0857 L4.3896,18.0857 L4.3896,18.2107 C4.3896,18.8607 4.9186,19.3907 5.5696,19.3907 L6.3796,19.3907 C7.0306,19.3907 7.5596,18.8607 7.5596,18.2107 L7.5596,18.0857 L7.6846,18.0857 C8.3356,18.0857 8.8646,17.5557 8.8646,16.9057 L8.8646,16.0957 C8.8646,15.4447 8.3356,14.9157 7.6846,14.9157 L7.5596,14.9157 L7.5596,14.7907 C7.5596,14.1397 7.0306,13.6107 6.3796,13.6107 M6.3796,14.6107 C6.4786,14.6107 6.5596,14.6917 6.5596,14.7907 L6.5596,15.9157 L7.6846,15.9157 C7.7836,15.9157 7.8646,15.9967 7.8646,16.0957 L7.8646,16.9057 C7.8646,17.0047 7.7836,17.0857 7.6846,17.0857 L6.5596,17.0857 L6.5596,18.2107 C6.5596,18.3097 6.4786,18.3907 6.3796,18.3907 L5.5696,18.3907 C5.4706,18.3907 5.3896,18.3097 5.3896,18.2107 L5.3896,17.0857 L4.2646,17.0857 C4.1656,17.0857 4.0846,17.0047 4.0846,16.9057 L4.0846,16.0957 C4.0846,15.9967 4.1656,15.9157 4.2646,15.9157 L5.3896,15.9157 L5.3896,14.7907 C5.3896,14.6917 5.4706,14.6107 5.5696,14.6107 L6.3796,14.6107" id="Fill-9" fill="#000000"></path>
                                <path d="M14.0648,0.6981 L14.0648,4.4481 C14.0648,4.4481 14.0648,5.3651 15.1478,5.3651 L18.9618,5.3651" id="Stroke-11" stroke="#000000"></path>
                            </g>
                        </g>
                    </g>
                </g>
            </g>
        </g>
    </g>
</svg>