<?xml version="1.0" encoding="UTF-8"?>
<svg width="17px" height="16px" viewBox="0 0 17 16" version="1.1" xmlns="http://www.w3.org/2000/svg" xmlns:xlink="http://www.w3.org/1999/xlink">
    <!-- Generator: Sketch 55.1 (78136) - https://sketchapp.com -->
    <title>Icon-Calendar-Dark</title>
    <desc>Created with Sketch.</desc>
    <g id="WebApp" stroke="none" stroke-width="1" fill="none" fill-rule="evenodd">
        <g id="Screen-08-Chat-Widget" transform="translate(-1222.000000, -690.000000)" fill="#17191A">
            <g id="Chat-Widget" transform="translate(806.000000, 228.000000)">
                <g id="Type-message" transform="translate(0.000000, 402.000000)">
                    <g id="Bottom" transform="translate(20.000000, 53.000000)">
                        <g id="Buttons-Enable" transform="translate(313.000000, 0.000000)">
                            <g id="Send-Later" transform="translate(77.000000, 0.000000)">
                                <g id="Icon-Calendar-Dark" transform="translate(6.000000, 7.000000)">
                                    <path d="M15.571985,1.40394862 L13.4922052,1.40394862 L13.4922052,0.975860596 C13.4922052,0.739556009 13.3058569,0.547772576 13.0762492,0.547772576 C12.8466415,0.547772576 12.6602932,0.739556009 12.6602932,0.975860596 L12.6602932,1.40394862 L4.34117382,1.40394862 L4.34117382,0.975860596 C4.34117382,0.739556009 4.15482554,0.547772576 3.92521785,0.547772576 C3.69561015,0.547772576 3.50926188,0.739556009 3.50926188,0.975860596 L3.50926188,1.40394862 L1.42948202,1.40394862 C0.741490849,1.40394862 0.181614112,1.98015509 0.181614112,2.68821268 L0.181614112,14.6746772 C0.181614112,15.3827348 0.741490849,15.9589413 1.42948202,15.9589413 L15.571985,15.9589413 C16.2599762,15.9589413 16.8198529,15.3827348 16.8198529,14.6746772 L16.8198529,2.68821268 C16.8198529,1.98015509 16.2599762,1.40394862 15.571985,1.40394862 L15.571985,1.40394862 Z M1.42948202,2.26012466 L3.50926188,2.26012466 L3.50926188,3.54438871 C3.50926188,3.7806933 3.69561015,3.97247673 3.92521785,3.97247673 C4.15482554,3.97247673 4.34117382,3.7806933 4.34117382,3.54438871 L4.34117382,2.26012466 L12.6602932,2.26012466 L12.6602932,3.54438871 C12.6602932,3.7806933 12.8466415,3.97247673 13.0762492,3.97247673 C13.3058569,3.97247673 13.4922052,3.7806933 13.4922052,3.54438871 L13.4922052,2.26012466 L15.571985,2.26012466 C15.8015927,2.26012466 15.987941,2.45190809 15.987941,2.68821268 L15.987941,4.82865277 L1.01352605,4.82865277 L1.01352605,2.68821268 C1.01352605,2.45190809 1.19987433,2.26012466 1.42948202,2.26012466 L1.42948202,2.26012466 Z M15.571985,15.1027653 L1.42948202,15.1027653 C1.19987433,15.1027653 1.01352605,14.9109818 1.01352605,14.6746772 L1.01352605,5.68482881 L15.987941,5.68482881 L15.987941,14.6746772 C15.987941,14.9109818 15.8015927,15.1027653 15.571985,15.1027653 L15.571985,15.1027653 Z" id="Shape"></path>
                                    <path d="M6.42095367,8.25335693 L5.58904173,8.25335693 C5.35943404,8.25335693 5.17308576,8.0615735 5.17308576,7.82526891 C5.17308576,7.58896433 5.35943404,7.39718089 5.58904173,7.39718089 L6.42095367,7.39718089 C6.65056137,7.39718089 6.83690964,7.58896433 6.83690964,7.82526891 C6.83690964,8.0615735 6.65056137,8.25335693 6.42095367,8.25335693 L6.42095367,8.25335693 Z" id="Shape"></path>
                                    <path d="M8.9166895,8.25335693 L8.08477756,8.25335693 C7.85516986,8.25335693 7.66882159,8.0615735 7.66882159,7.82526891 C7.66882159,7.58896433 7.85516986,7.39718089 8.08477756,7.39718089 L8.9166895,7.39718089 C9.14629719,7.39718089 9.33264547,7.58896433 9.33264547,7.82526891 C9.33264547,8.0615735 9.14629719,8.25335693 8.9166895,8.25335693 L8.9166895,8.25335693 Z" id="Shape"></path>
                                    <path d="M11.4124253,8.25335693 L10.5805134,8.25335693 C10.3509057,8.25335693 10.1645574,8.0615735 10.1645574,7.82526891 C10.1645574,7.58896433 10.3509057,7.39718089 10.5805134,7.39718089 L11.4124253,7.39718089 C11.642033,7.39718089 11.8283813,7.58896433 11.8283813,7.82526891 C11.8283813,8.0615735 11.642033,8.25335693 11.4124253,8.25335693 L11.4124253,8.25335693 Z" id="Shape"></path>
                                    <path d="M13.9081611,8.25335693 L13.0762492,8.25335693 C12.8466415,8.25335693 12.6602932,8.0615735 12.6602932,7.82526891 C12.6602932,7.58896433 12.8466415,7.39718089 13.0762492,7.39718089 L13.9081611,7.39718089 C14.1377688,7.39718089 14.3241171,7.58896433 14.3241171,7.82526891 C14.3241171,8.0615735 14.1377688,8.25335693 13.9081611,8.25335693 L13.9081611,8.25335693 Z" id="Shape"></path>
                                    <path d="M3.92521785,9.96570901 L3.09330591,9.96570901 C2.86369821,9.96570901 2.67734994,9.77392558 2.67734994,9.53762099 C2.67734994,9.30131641 2.86369821,9.10953297 3.09330591,9.10953297 L3.92521785,9.10953297 C4.15482554,9.10953297 4.34117382,9.30131641 4.34117382,9.53762099 C4.34117382,9.77392558 4.15482554,9.96570901 3.92521785,9.96570901 L3.92521785,9.96570901 Z" id="Shape"></path>
                                    <path d="M6.42095367,9.96570901 L5.58904173,9.96570901 C5.35943404,9.96570901 5.17308576,9.77392558 5.17308576,9.53762099 C5.17308576,9.30131641 5.35943404,9.10953297 5.58904173,9.10953297 L6.42095367,9.10953297 C6.65056137,9.10953297 6.83690964,9.30131641 6.83690964,9.53762099 C6.83690964,9.77392558 6.65056137,9.96570901 6.42095367,9.96570901 L6.42095367,9.96570901 Z" id="Shape"></path>
                                    <path d="M8.9166895,9.96570901 L8.08477756,9.96570901 C7.85516986,9.96570901 7.66882159,9.77392558 7.66882159,9.53762099 C7.66882159,9.30131641 7.85516986,9.10953297 8.08477756,9.10953297 L8.9166895,9.10953297 C9.14629719,9.10953297 9.33264547,9.30131641 9.33264547,9.53762099 C9.33264547,9.77392558 9.14629719,9.96570901 8.9166895,9.96570901 L8.9166895,9.96570901 Z" id="Shape"></path>
                                    <path d="M11.4124253,9.96570901 L10.5805134,9.96570901 C10.3509057,9.96570901 10.1645574,9.77392558 10.1645574,9.53762099 C10.1645574,9.30131641 10.3509057,9.10953297 10.5805134,9.10953297 L11.4124253,9.10953297 C11.642033,9.10953297 11.8283813,9.30131641 11.8283813,9.53762099 C11.8283813,9.77392558 11.642033,9.96570901 11.4124253,9.96570901 L11.4124253,9.96570901 Z" id="Shape"></path>
                                    <path d="M13.9081611,9.96570901 L13.0762492,9.96570901 C12.8466415,9.96570901 12.6602932,9.77392558 12.6602932,9.53762099 C12.6602932,9.30131641 12.8466415,9.10953297 13.0762492,9.10953297 L13.9081611,9.10953297 C14.1377688,9.10953297 14.3241171,9.30131641 14.3241171,9.53762099 C14.3241171,9.77392558 14.1377688,9.96570901 13.9081611,9.96570901 L13.9081611,9.96570901 Z" id="Shape"></path>
                                    <path d="M3.92521785,11.6780611 L3.09330591,11.6780611 C2.86369821,11.6780611 2.67734994,11.4862777 2.67734994,11.2499731 C2.67734994,11.0136685 2.86369821,10.8218851 3.09330591,10.8218851 L3.92521785,10.8218851 C4.15482554,10.8218851 4.34117382,11.0136685 4.34117382,11.2499731 C4.34117382,11.4862777 4.15482554,11.6780611 3.92521785,11.6780611 L3.92521785,11.6780611 Z" id="Shape"></path>
                                    <path d="M6.42095367,11.6780611 L5.58904173,11.6780611 C5.35943404,11.6780611 5.17308576,11.4862777 5.17308576,11.2499731 C5.17308576,11.0136685 5.35943404,10.8218851 5.58904173,10.8218851 L6.42095367,10.8218851 C6.65056137,10.8218851 6.83690964,11.0136685 6.83690964,11.2499731 C6.83690964,11.4862777 6.65056137,11.6780611 6.42095367,11.6780611 L6.42095367,11.6780611 Z" id="Shape"></path>
                                    <path d="M8.9166895,11.6780611 L8.08477756,11.6780611 C7.85516986,11.6780611 7.66882159,11.4862777 7.66882159,11.2499731 C7.66882159,11.0136685 7.85516986,10.8218851 8.08477756,10.8218851 L8.9166895,10.8218851 C9.14629719,10.8218851 9.33264547,11.0136685 9.33264547,11.2499731 C9.33264547,11.4862777 9.14629719,11.6780611 8.9166895,11.6780611 L8.9166895,11.6780611 Z" id="Shape"></path>
                                    <path d="M11.4124253,11.6780611 L10.5805134,11.6780611 C10.3509057,11.6780611 10.1645574,11.4862777 10.1645574,11.2499731 C10.1645574,11.0136685 10.3509057,10.8218851 10.5805134,10.8218851 L11.4124253,10.8218851 C11.642033,10.8218851 11.8283813,11.0136685 11.8283813,11.2499731 C11.8283813,11.4862777 11.642033,11.6780611 11.4124253,11.6780611 L11.4124253,11.6780611 Z" id="Shape"></path>
                                    <path d="M13.9081611,11.6780611 L13.0762492,11.6780611 C12.8466415,11.6780611 12.6602932,11.4862777 12.6602932,11.2499731 C12.6602932,11.0136685 12.8466415,10.8218851 13.0762492,10.8218851 L13.9081611,10.8218851 C14.1377688,10.8218851 14.3241171,11.0136685 14.3241171,11.2499731 C14.3241171,11.4862777 14.1377688,11.6780611 13.9081611,11.6780611 L13.9081611,11.6780611 Z" id="Shape"></path>
                                    <path d="M3.92521785,13.3904132 L3.09330591,13.3904132 C2.86369821,13.3904132 2.67734994,13.1986297 2.67734994,12.9623252 C2.67734994,12.7260206 2.86369821,12.5342371 3.09330591,12.5342371 L3.92521785,12.5342371 C4.15482554,12.5342371 4.34117382,12.7260206 4.34117382,12.9623252 C4.34117382,13.1986297 4.15482554,13.3904132 3.92521785,13.3904132 L3.92521785,13.3904132 Z" id="Shape"></path>
                                    <path d="M6.42095367,13.3904132 L5.58904173,13.3904132 C5.35943404,13.3904132 5.17308576,13.1986297 5.17308576,12.9623252 C5.17308576,12.7260206 5.35943404,12.5342371 5.58904173,12.5342371 L6.42095367,12.5342371 C6.65056137,12.5342371 6.83690964,12.7260206 6.83690964,12.9623252 C6.83690964,13.1986297 6.65056137,13.3904132 6.42095367,13.3904132 L6.42095367,13.3904132 Z" id="Shape"></path>
                                    <path d="M8.9166895,13.3904132 L8.08477756,13.3904132 C7.85516986,13.3904132 7.66882159,13.1986297 7.66882159,12.9623252 C7.66882159,12.7260206 7.85516986,12.5342371 8.08477756,12.5342371 L8.9166895,12.5342371 C9.14629719,12.5342371 9.33264547,12.7260206 9.33264547,12.9623252 C9.33264547,13.1986297 9.14629719,13.3904132 8.9166895,13.3904132 L8.9166895,13.3904132 Z" id="Shape"></path>
                                    <path d="M11.4124253,13.3904132 L10.5805134,13.3904132 C10.3509057,13.3904132 10.1645574,13.1986297 10.1645574,12.9623252 C10.1645574,12.7260206 10.3509057,12.5342371 10.5805134,12.5342371 L11.4124253,12.5342371 C11.642033,12.5342371 11.8283813,12.7260206 11.8283813,12.9623252 C11.8283813,13.1986297 11.642033,13.3904132 11.4124253,13.3904132 L11.4124253,13.3904132 Z" id="Shape"></path>
                                    <path d="M13.9081611,13.3904132 L13.0762492,13.3904132 C12.8466415,13.3904132 12.6602932,13.1986297 12.6602932,12.9623252 C12.6602932,12.7260206 12.8466415,12.5342371 13.0762492,12.5342371 L13.9081611,12.5342371 C14.1377688,12.5342371 14.3241171,12.7260206 14.3241171,12.9623252 C14.3241171,13.1986297 14.1377688,13.3904132 13.9081611,13.3904132 L13.9081611,13.3904132 Z" id="Shape"></path>
                                </g>
                            </g>
                        </g>
                    </g>
                </g>
            </g>
        </g>
    </g>
</svg>