<?xml version="1.0" encoding="UTF-8"?>
<svg width="24px" height="18px" viewBox="0 0 24 18" version="1.1" xmlns="http://www.w3.org/2000/svg" xmlns:xlink="http://www.w3.org/1999/xlink">
    <!-- Generator: Sketch 55.1 (78136) - https://sketchapp.com -->
    <title>Icon-Archive</title>
    <desc>Created with Sketch.</desc>
    <g id="WebApp" stroke="none" stroke-width="1" fill="none" fill-rule="evenodd">
        <g id="Screen-08-Chat-Widget" transform="translate(-1196.000000, -282.000000)">
            <g id="Chat-Widget" transform="translate(806.000000, 228.000000)">
                <g id="Number" transform="translate(0.000000, 46.000000)">
                    <g id="Icon-Archive" transform="translate(390.000000, 5.000000)">
                        <rect id="Rectangle" fill="#D8D8D8" opacity="0" x="0" y="0" width="24" height="24"></rect>
                        <g id="Group-4" transform="translate(0.000000, 3.000000)" fill="#9B9B9B">
                            <path d="M13.8,14.4473684 L10.2,14.4473684 C9.8688,14.4473684 9.6,14.1809211 9.6,13.8552632 C9.6,13.5296053 9.8688,13.2631579 10.2,13.2631579 L13.8,13.2631579 C14.13,13.2631579 14.4,13.5296053 14.4,13.8552632 C14.4,14.1809211 14.13,14.4473684 13.8,14.4473684" id="Fill-1"></path>
                            <path d="M22.8,16.2236842 C22.8,16.5493421 22.53,16.8157895 22.2,16.8157895 L1.8,16.8157895 C1.4688,16.8157895 1.2,16.5493421 1.2,16.2236842 L1.2,11.4868421 C1.2,11.1611842 1.4688,10.8947368 1.8,10.8947368 L22.2,10.8947368 C22.53,10.8947368 22.8,11.1611842 22.8,11.4868421 L22.8,16.2236842 Z M4.8684,2.15171053 C5.0376,1.76921053 5.5776,1.42105263 6,1.42105263 L18,1.42105263 C18.4224,1.42105263 18.9636,1.76921053 19.1316,2.15171053 L22.3692,9.45592105 C22.4052,9.53644737 22.4412,9.63236842 22.476,9.73184211 C22.3848,9.71763158 22.2936,9.71052632 22.2,9.71052632 L1.8,9.71052632 C1.7064,9.71052632 1.614,9.71763158 1.524,9.73184211 C1.5588,9.63236842 1.5936,9.53644737 1.6308,9.45592105 L4.8684,2.15171053 Z M23.4684,8.97986842 L20.2308,1.67565789 C19.872,0.868026316 18.8928,0.235657895 18,0.235657895 L6,0.235657895 C5.1072,0.235657895 4.1268,0.868026316 3.7692,1.67565789 L0.5316,8.97986842 C0.234,9.6525 0,10.7526316 0,11.4868421 L0,16.2236842 C0,17.2030263 0.8076,18 1.8,18 L22.2,18 C23.1924,18 24,17.2030263 24,16.2236842 L24,11.4868421 C24,10.7538158 23.7684,9.6525 23.4684,8.97986842 L23.4684,8.97986842 Z" id="Fill-3"></path>
                        </g>
                        <path d="M19.8,11.5263158 L4.2,11.5263158 C3.8688,11.5263158 3.6,11.2598684 3.6,10.9342105 C3.6,10.6073684 3.8688,10.3421053 4.2,10.3421053 L19.8,10.3421053 C20.13,10.3421053 20.4,10.6073684 20.4,10.9342105 C20.4,11.2598684 20.13,11.5263158 19.8,11.5263158" id="Fill-5" fill="#9B9B9B"></path>
                        <path d="M18.6,9.15789474 L5.4,9.15789474 C5.0688,9.15789474 4.8,8.89263158 4.8,8.56578947 C4.8,8.23894737 5.0688,7.97368421 5.4,7.97368421 L18.6,7.97368421 C18.93,7.97368421 19.2,8.23894737 19.2,8.56578947 C19.2,8.89263158 18.93,9.15789474 18.6,9.15789474" id="Fill-6" fill="#9B9B9B"></path>
                        <path d="M17.4,6.78947368 L6.6,6.78947368 C6.2688,6.78947368 6,6.52421053 6,6.19736842 C6,5.87052632 6.2688,5.60526316 6.6,5.60526316 L17.4,5.60526316 C17.73,5.60526316 18,5.87052632 18,6.19736842 C18,6.52421053 17.73,6.78947368 17.4,6.78947368" id="Fill-7" fill="#9B9B9B"></path>
                    </g>
                </g>
            </g>
        </g>
    </g>
</svg>