<svg width="18" height="18" viewBox="0 0 18 18" fill="none" xmlns="http://www.w3.org/2000/svg">
<path fill-rule="evenodd" clip-rule="evenodd" d="M15.4593 3.41672C15.026 2.40559 14.0318 1.75 12.9317 1.75H5.06928C3.9692 1.75 2.97497 2.40559 2.54163 3.41672L0.655455 7.8178L2.03417 8.40868L3.92035 4.0076C4.11732 3.548 4.56925 3.25 5.06928 3.25H12.9317C13.4317 3.25 13.8837 3.548 14.0806 4.0076L15.9183 8.29544L17.297 7.70456L15.4593 3.41672Z" fill="black"/>
<path fill-rule="evenodd" clip-rule="evenodd" d="M18.0005 9.5C18.0005 7.98122 16.7693 6.75 15.2505 6.75H14.2635C13.1675 6.75 12.1761 7.40088 11.7402 8.40658L11.4844 8.99701C11.2863 9.45415 10.8357 9.75 10.3375 9.75H7.66353C7.16531 9.75 6.71467 9.45415 6.51658 8.99701L6.26073 8.40658C5.82493 7.40088 4.83352 6.75 3.73745 6.75H2.75049C1.2317 6.75 0.000488281 7.98122 0.000488281 9.5V13.5C0.000488281 15.0188 1.2317 16.25 2.75049 16.25H15.2505C16.7693 16.25 18.0005 15.0188 18.0005 13.5V9.5Z" fill="black"/>
</svg>
