<?xml version="1.0" encoding="UTF-8"?>
<svg width="150px" height="46px" viewBox="0 0 150 46" version="1.1" xmlns="http://www.w3.org/2000/svg" xmlns:xlink="http://www.w3.org/1999/xlink">
    <!-- Generator: Sketch 54 (76480) - https://sketchapp.com -->
    <title>Logo-Black-BG</title>
    <desc>Created with Sketch.</desc>
    <g id="WebApp" stroke="none" stroke-width="1" fill="none" fill-rule="evenodd">
        <g id="Screen-03" transform="translate(-47.000000, -135.000000)">
            <g id="Top" transform="translate(15.000000, 103.000000)">
                <g id="Logo-Black-BG" transform="translate(32.000000, 32.000000)">
                    <g id="Group" transform="translate(60.965106, 11.974790)" fill="#FFFFFF">
                        <path d="M0.350021399,0.828347908 L4.98896403,0.828347908 L10.1602443,9.11182699 L15.3315247,0.828347908 L19.9704673,0.828347908 L19.9704673,20.3321759 L15.6357176,20.3321759 L15.6357176,7.60573989 L10.0841961,15.9645233 L10.0081479,15.9645233 L4.53267459,7.68104424 L4.53267459,20.3321759 L0.27397316,20.3321759 L0.27397316,0.828347908 L0.350021399,0.828347908 Z M21.795625,16.0398277 C21.795625,12.726436 24.305217,11.2203489 27.8794842,11.2203489 C29.400449,11.2203489 30.4651244,11.446262 31.605848,11.8227838 L31.605848,11.5968707 C31.605848,9.86487055 30.5411726,8.88591393 28.3357737,8.88591393 C26.7387606,8.88591393 25.5219888,9.18713135 24.1531205,9.71426184 L23.0884451,6.47617456 C24.7615064,5.723131 26.3585194,5.27130487 28.9441596,5.27130487 C31.301655,5.27130487 32.9747163,5.87373971 34.0393917,6.92800069 C35.1801153,8.05756602 35.6364047,9.71426184 35.6364047,11.6721751 L35.6364047,20.3321759 L31.5297998,20.3321759 L31.5297998,18.7507845 C30.4651244,19.8803498 29.0202078,20.6333934 26.9669054,20.6333934 C24.1531205,20.6333934 21.795625,18.9766975 21.795625,16.0398277 Z M38.2220449,5.34660923 L42.4807463,5.34660923 L42.4807463,8.35878344 C43.3172769,6.32556585 44.7621935,4.97008745 47.2717854,5.04539181 L47.2717854,9.48834877 L47.0436407,9.48834877 C44.2298558,9.48834877 42.4807463,11.2203489 42.4807463,14.7596536 L42.4807463,20.3321759 L38.2220449,20.3321759 L38.2220449,5.34660923 Z M48.8687984,-3.21964677e-15 L53.1274999,-3.21964677e-15 L53.1274999,10.8438272 L58.1466837,5.42191358 L63.2419158,5.42191358 L57.4622495,11.2956533 L63.3940123,20.3321759 L58.5269249,20.3321759 L54.5724164,14.2325232 L53.0514516,15.8139146 L53.0514516,20.3321759 L48.7927502,20.3321759 L48.7927502,-3.21964677e-15 L48.8687984,-3.21964677e-15 Z M63.0137711,12.9523491 C63.0137711,8.66000086 66.0557007,5.12069616 70.4664986,5.12069616 C75.4856824,5.12069616 77.8431778,8.96121828 77.8431778,13.2535665 C77.8431778,13.554784 77.8431778,14.0066101 77.7671296,14.3831319 L67.2724725,14.3831319 C67.7287619,16.3410451 69.021582,17.3200017 70.9988362,17.3200017 C72.4437528,17.3200017 73.5084282,16.8681756 74.6491518,15.8139146 L77.0826954,17.9977409 C75.6377789,19.7297411 73.6605246,20.7840021 70.922788,20.7840021 C66.3598936,20.6333934 63.0137711,17.5459148 63.0137711,12.9523491 Z M80.5809145,16.115132 L80.5809145,9.03652264 L78.7557567,9.03652264 L78.7557567,5.42191358 L80.5809145,5.42191358 L80.5809145,1.58139146 L84.8396159,1.58139146 L84.8396159,5.42191358 L88.4138832,5.42191358 L88.4138832,9.03652264 L84.8396159,9.03652264 L84.8396159,15.4373928 C84.8396159,16.4163495 85.2959053,16.8681756 86.2084842,16.8681756 C86.9689666,16.8681756 87.729449,16.6422625 88.3378349,16.3410451 L88.3378349,19.7297411 C87.4252561,20.2568716 86.3605807,20.558089 84.9917124,20.558089 C82.330024,20.558089 80.5809145,19.5791324 80.5809145,16.115132 Z M31.605848,15.0608711 L31.605848,14.3078275 C30.8453656,14.0066101 29.9327867,13.780697 28.8681114,13.780697 C27.0429536,13.780697 25.90223,14.5337406 25.90223,15.8139146 L25.90223,15.889219 C25.90223,17.0187843 26.8908571,17.6965235 28.2597254,17.6965235 C30.2369797,17.6965235 31.605848,16.5669582 31.605848,15.0608711 Z M73.6605246,11.6721751 C73.4323799,9.78956619 72.2916563,8.50939215 70.4664986,8.50939215 C68.7173891,8.50939215 67.5006172,9.78956619 67.1964243,11.6721751 L73.6605246,11.6721751 Z" id="Combined-Shape"></path>
                    </g>
                    <g id="Group" fill="#FFC926">
                        <path d="M24.2209322,32.1069396 L24.2209322,32.1817809 L19.9421555,32.1817809 L19.9421555,23.9492323 C19.9421555,22.0033572 18.9488681,20.9555783 17.3443268,20.9555783 C15.7397856,20.9555783 14.6700914,22.0033572 14.6700914,23.9492323 L14.6700914,32.1069396 L10.3913148,32.1069396 L10.3913148,9.28032752 L14.6700914,9.28032752 L14.6700914,19.5335926 C15.6633789,18.2612896 16.9622932,17.1386694 19.1016815,17.1386694 C22.310764,17.1386694 24.2209322,19.2342272 24.2209322,22.602088 L24.2209322,32.1069396 Z M40.8011918,25.1466939 C40.8011918,25.4460593 40.8011918,25.8202661 40.724785,26.1944728 L30.2570636,26.1944728 C30.6390972,28.0655066 32.0144183,29.0384442 33.9245864,29.0384442 C35.3763142,29.0384442 36.4460084,28.5893961 37.5921093,27.5416171 L40.0371245,29.637175 C38.6618034,31.358526 36.6752286,32.406305 33.9245864,32.406305 C29.4165896,32.406305 26.0546936,29.3378096 26.0546936,24.8473285 L26.0546936,24.7724872 C26.0546936,20.5813715 29.1109627,17.1386694 33.4661461,17.1386694 C38.50899,17.1386694 40.8011918,20.9555783 40.8011918,25.1466939 Z M30.2570636,23.6498669 L36.6752286,23.6498669 C36.4460084,21.7788331 35.2999075,20.5065302 33.5425528,20.5065302 C31.7087914,20.5065302 30.5626905,21.7788331 30.2570636,23.6498669 Z M52.0329805,17.4380348 L56.3881639,17.4380348 L50.6576594,32.4811463 C50.5812527,32.7056704 50.504846,32.8553531 50.4284393,33.0050358 L45.6148155,45.9525895 L41.4888523,45.9525895 L46.608103,31.9572568 L40.8011918,17.4380348 L45.3091886,17.4380348 L48.7474913,27.4667758 L52.0329805,17.4380348 Z M4.27878692,27.9906652 C4.27878692,32.3314636 7.86991166,35.9238484 12.3779193,35.9986898 L42.4058347,35.9986898 L40.7248827,40.1149641 L12.3779193,40.1149641 C5.57770438,40.1149641 -2.71451872e-15,34.6515455 0,28.0655066 L0,12.1242989 C0,5.38857727 5.57770438,-3.55271368e-15 12.3779193,-3.55271368e-15 L44.0103798,-3.55271368e-15 C50.8870016,-3.55271368e-15 56.3882991,5.46341862 56.3882991,12.1242989 L56.3882991,15.2676356 L52.1859191,15.2676356 L52.1859191,12.0494575 C52.1859191,7.6338178 48.5183874,4.1162743 44.0867867,4.1162743 L12.3779193,4.1162743 C7.94631857,4.1162743 4.27878692,7.6338178 4.27878692,12.0494575 L4.27878692,27.9906652 Z" id="Combined-Shape"></path>
                    </g>
                </g>
            </g>
        </g>
    </g>
</svg>