<svg width="18" height="18" viewBox="0 0 18 18" fill="none" xmlns="http://www.w3.org/2000/svg">
<g clip-path="url(#clip0_46_1087)">
<path fill-rule="evenodd" clip-rule="evenodd" d="M13.0005 2C13.0005 1.0335 13.784 0.25 14.7505 0.25H16.2505C17.217 0.25 18.0005 1.0335 18.0005 2V16C18.0005 16.9665 17.217 17.75 16.2505 17.75H14.7505C13.784 17.75 13.0005 16.9665 13.0005 16C13.0005 15.0335 13.0005 2.9665 13.0005 2ZM6.50049 7C6.50049 6.0335 7.28399 5.25 8.25049 5.25H9.75049C10.717 5.25 11.5005 6.0335 11.5005 7V16C11.5005 16.9665 10.717 17.75 9.75049 17.75H8.25049C7.28399 17.75 6.50049 16.9665 6.50049 16V7ZM0.000488281 12C0.000488281 11.0335 0.78399 10.25 1.75049 10.25H3.25049C4.21699 10.25 5.00049 11.0335 5.00049 12V16C5.00049 16.9665 4.21699 17.75 3.25049 17.75H1.75049C0.78399 17.75 0.000488281 16.9665 0.000488281 16V12Z" fill="black"/>
</g>
<defs>
<clipPath id="clip0_46_1087">
<rect width="18" height="18" fill="white" transform="translate(0.000488281)"/>
</clipPath>
</defs>
</svg>
