<svg width="18" height="18" viewBox="0 0 18 18" fill="none" xmlns="http://www.w3.org/2000/svg">
<g clip-path="url(#clip0_46_739)">
<path fill-rule="evenodd" clip-rule="evenodd" d="M0.000488281 12C0.000488281 11.0335 0.78399 10.25 1.75049 10.25H3.25049C4.21699 10.25 5.00049 11.0335 5.00049 12V16C5.00049 16.9665 4.21699 17.75 3.25049 17.75H1.75049C0.78399 17.75 0.000488281 16.9665 0.000488281 16V12ZM1.75049 11.75C1.61242 11.75 1.50049 11.8619 1.50049 12V16C1.50049 16.1381 1.61242 16.25 1.75049 16.25H3.25049C3.38856 16.25 3.50049 16.1381 3.50049 16V12C3.50049 11.8619 3.38856 11.75 3.25049 11.75H1.75049Z" fill="#9B9B9B"/>
<path fill-rule="evenodd" clip-rule="evenodd" d="M6.50049 7C6.50049 6.0335 7.28399 5.25 8.25049 5.25H9.75049C10.717 5.25 11.5005 6.0335 11.5005 7V16C11.5005 16.9665 10.717 17.75 9.75049 17.75H8.25049C7.28399 17.75 6.50049 16.9665 6.50049 16V7ZM8.25049 6.75C8.11242 6.75 8.00049 6.86193 8.00049 7V16C8.00049 16.1381 8.11242 16.25 8.25049 16.25H9.75049C9.88856 16.25 10.0005 16.1381 10.0005 16V7C10.0005 6.86193 9.88856 6.75 9.75049 6.75H8.25049Z" fill="#9B9B9B"/>
<path fill-rule="evenodd" clip-rule="evenodd" d="M13.0005 2C13.0005 1.0335 13.784 0.25 14.7505 0.25H16.2505C17.217 0.25 18.0005 1.0335 18.0005 2V16C18.0005 16.9665 17.217 17.75 16.2505 17.75H14.7505C13.784 17.75 13.0005 16.9665 13.0005 16V2ZM14.7505 1.75C14.6124 1.75 14.5005 1.86193 14.5005 2V16C14.5005 16.1381 14.6124 16.25 14.7505 16.25H16.2505C16.3886 16.25 16.5005 16.1381 16.5005 16V2C16.5005 1.86193 16.3886 1.75 16.2505 1.75H14.7505Z" fill="#9B9B9B"/>
</g>
<defs>
<clipPath id="clip0_46_739">
<rect width="18" height="18" fill="white" transform="translate(0.000488281)"/>
</clipPath>
</defs>
</svg>
