<svg width="19" height="18" viewBox="0 0 19 18" fill="none" xmlns="http://www.w3.org/2000/svg">
<path fill-rule="evenodd" clip-rule="evenodd" d="M5.55036 8.21563C6.68035 8.21563 7.59609 7.29975 7.59609 6.17032C7.59609 5.04089 6.68035 4.125 5.55036 4.125C4.42036 4.125 3.50462 5.04089 3.50462 6.17032C3.50462 7.29975 4.42036 8.21563 5.55036 8.21563ZM5.55036 9.71563C7.50861 9.71563 9.09609 8.12834 9.09609 6.17032C9.09609 4.21229 7.50861 2.625 5.55036 2.625C3.5921 2.625 2.00462 4.21229 2.00462 6.17032C2.00462 8.12834 3.5921 9.71563 5.55036 9.71563Z" fill="#9B9B9B"/>
<path fill-rule="evenodd" clip-rule="evenodd" d="M0.000488281 14.625C0.000488281 12.8852 1.41086 11.4748 3.15065 11.4748H7.95209C9.69187 11.4748 11.1022 12.8852 11.1022 14.625C11.1022 15.0392 10.7665 15.375 10.3522 15.375C9.93803 15.375 9.60225 15.0392 9.60225 14.625C9.60225 13.7136 8.86344 12.9748 7.95209 12.9748H3.15065C2.23929 12.9748 1.50049 13.7136 1.50049 14.625C1.50049 15.0392 1.1647 15.375 0.750488 15.375C0.336275 15.375 0.000488281 15.0392 0.000488281 14.625Z" fill="#9B9B9B"/>
<path fill-rule="evenodd" clip-rule="evenodd" d="M13.25 7.53337C14.0538 7.53337 14.7048 6.88201 14.7048 6.07918C14.7048 5.27635 14.0538 4.625 13.25 4.625C12.4463 4.625 11.7952 5.27635 11.7952 6.07918C11.7952 6.88201 12.4463 7.53337 13.25 7.53337ZM13.25 9.03337C14.8819 9.03337 16.2048 7.71073 16.2048 6.07918C16.2048 4.44763 14.8819 3.125 13.25 3.125C11.6181 3.125 10.2952 4.44763 10.2952 6.07918C10.2952 7.71073 11.6181 9.03337 13.25 9.03337Z" fill="#9B9B9B"/>
<path fill-rule="evenodd" clip-rule="evenodd" d="M10.6324 10.4448C10.8317 10.3991 11.0385 10.375 11.2501 10.375H15.2517C16.7704 10.375 18.0016 11.6062 18.0016 13.125C18.0016 13.5392 17.6658 13.875 17.2516 13.875C16.8374 13.875 16.5016 13.5392 16.5016 13.125C16.5016 12.4347 15.942 11.875 15.2517 11.875H11.2501C11.1524 11.875 11.0582 11.8861 10.9683 11.9068C10.5646 11.9995 10.1622 11.7474 10.0694 11.3438C9.97666 10.9401 10.2287 10.5376 10.6324 10.4448Z" fill="#9B9B9B"/>
</svg>
