<svg width="18" height="18" viewBox="0 0 18 18" fill="none" xmlns="http://www.w3.org/2000/svg">
<path fill-rule="evenodd" clip-rule="evenodd" d="M7.74243 0.798416C7.84251 1.20036 7.59781 1.60733 7.19587 1.70741C3.93219 2.52009 1.51465 5.47143 1.51465 8.98555C1.51465 13.1277 4.87251 16.4855 9.01465 16.4855C12.5288 16.4855 15.4801 14.068 16.2928 10.8043C16.3929 10.4024 16.7998 10.1577 17.2018 10.2578C17.6037 10.3579 17.8484 10.7648 17.7483 11.1668C16.7732 15.083 13.2338 17.9855 9.01465 17.9855C4.04409 17.9855 0.0146484 13.9561 0.0146484 8.98555C0.0146484 4.76639 2.9172 1.22702 6.83343 0.25186C7.23537 0.151774 7.64234 0.396476 7.74243 0.798416Z" fill="#9B9B9B"/>
<path fill-rule="evenodd" clip-rule="evenodd" d="M8.26465 1.73533C8.26465 0.783255 9.04631 -0.0471559 10.0623 0.0181341C12.458 0.172092 14.3865 0.879499 15.7536 2.24659C17.1207 3.61368 17.8281 5.54219 17.9821 7.93792C18.0474 8.95411 17.2165 9.73555 16.2646 9.73555H11.0146C9.49647 9.73555 8.26465 8.50618 8.26465 6.98679V1.73533ZM9.96608 1.51505C9.87976 1.5095 9.76465 1.58284 9.76465 1.73533V6.98679C9.76465 7.67654 10.3237 8.23555 11.0146 8.23555H16.2646C16.4174 8.23555 16.4907 8.12022 16.4852 8.03412C16.3462 5.87191 15.7229 4.33716 14.6929 3.30725C13.663 2.27734 12.1283 1.654 9.96608 1.51505Z" fill="#9B9B9B"/>
</svg>
