<svg width="18" height="18" viewBox="0 0 18 18" fill="none" xmlns="http://www.w3.org/2000/svg">
<path fill-rule="evenodd" clip-rule="evenodd" d="M7.74291 0.798355C7.843 1.20029 7.5983 1.60727 7.19636 1.70735C3.93268 2.52003 1.51514 5.47137 1.51514 8.98549C1.51514 13.1276 4.873 16.4855 9.01514 16.4855C12.5293 16.4855 15.4806 14.0679 16.2933 10.8043C16.3934 10.4023 16.8003 10.1576 17.2023 10.2577C17.6042 10.3578 17.8489 10.7648 17.7488 11.1667C16.7737 15.0829 13.2343 17.9855 9.01514 17.9855C4.04457 17.9855 0.0151367 13.9561 0.0151367 8.98549C0.0151367 4.76633 2.91769 1.22696 6.83392 0.251798C7.23586 0.151713 7.64283 0.396415 7.74291 0.798355Z" fill="black"/>
<path fill-rule="evenodd" clip-rule="evenodd" d="M8.26514 1.73527C8.26514 0.783193 9.04679 -0.0472169 10.0628 0.0180731C12.4585 0.172031 14.387 0.879438 15.7541 2.24653C17.1212 3.61362 17.8286 5.54213 17.9826 7.93786C18.0479 8.95405 17.217 9.73549 16.2651 9.73549H11.0151C9.49696 9.73549 8.26514 8.50612 8.26514 6.98673V1.73527Z" fill="black"/>
</svg>
